<?xml version="1.0" standalone="no"?>
<!DOCTYPE svg PUBLIC "-//W3C//DTD SVG 20010904//EN"
 "http://www.w3.org/TR/2001/REC-SVG-20010904/DTD/svg10.dtd">
<svg version="1.0" xmlns="http://www.w3.org/2000/svg"
 width="250.000000pt" height="250.000000pt" viewBox="0 0 250.000000 250.000000"
 preserveAspectRatio="xMidYMid meet">

<g transform="translate(0.000000,250.000000) scale(0.100000,-0.100000)"
fill="#000000" stroke="none">
<path d="M1115 2483 c-118 -14 -307 -74 -423 -132 -218 -110 -428 -316 -534
-526 -121 -237 -175 -542 -138 -773 25 -149 130 -408 214 -526 97 -135 283
-289 451 -374 258 -129 475 -166 741 -127 107 16 141 25 259 70 326 123 570
359 710 687 86 202 114 428 76 628 -43 230 -76 314 -199 514 -123 202 -265
334 -462 428 -163 78 -244 104 -376 123 -98 14 -244 18 -319 8z m365 -54 c281
-76 416 -148 586 -312 220 -211 328 -432 385 -785 32 -193 -60 -542 -201 -761
-84 -131 -287 -304 -459 -391 -185 -93 -337 -130 -537 -132 -173 -1 -286 21
-492 97 -152 55 -332 197 -473 373 -103 128 -204 355 -230 517 -20 124 -18
344 4 440 41 177 111 342 194 457 21 29 52 73 68 97 26 39 124 128 234 214 47
38 239 128 338 160 43 14 121 30 173 37 52 6 97 14 100 17 11 12 239 -9 310
-28z"/>
<path d="M1050 2405 c-117 -18 -214 -51 -350 -121 -110 -56 -272 -180 -328
-251 -122 -152 -218 -335 -258 -488 -32 -122 -43 -346 -25 -477 24 -167 117
-392 210 -508 109 -136 276 -287 375 -337 95 -48 252 -101 360 -122 377 -73
759 49 1059 338 134 129 218 281 288 520 25 86 32 131 36 236 5 120 3 140 -25
265 -57 252 -158 442 -324 612 -152 155 -357 269 -586 324 -92 22 -313 26
-432 9z m35 -188 c12 -10 16 -22 13 -40 -3 -17 1 -33 13 -46 18 -19 18 -20 -1
-26 -14 -5 -27 1 -41 17 l-20 23 5 -27 c5 -23 3 -28 -14 -28 -13 0 -22 9 -26
28 -3 15 -10 42 -14 60 -10 36 -10 36 61 51 3 0 13 -5 24 -12z m399 -14 c8
-31 18 -123 13 -123 -19 0 -37 15 -37 31 0 24 -28 25 -46 2 -7 -10 -15 -15
-19 -11 -9 9 57 118 72 118 6 0 14 -8 17 -17z m-656 -14 c-2 -6 -8 -10 -13
-10 -5 0 -11 4 -13 10 -2 6 4 11 13 11 9 0 15 -5 13 -11z m-38 -14 c0 -8 -7
-15 -15 -15 -16 0 -20 12 -8 23 11 12 23 8 23 -8z m100 -107 c0 -29 -23 -48
-59 -48 -23 0 -77 82 -66 100 12 20 31 10 43 -24 18 -48 39 -64 58 -44 14 14
14 20 -6 57 -11 23 -17 47 -13 54 9 15 42 -58 43 -95z m789 83 c10 -6 11 -13
2 -29 -14 -27 -14 -29 4 -36 10 -4 19 3 27 19 8 19 15 22 28 15 16 -8 15 -13
-9 -64 -25 -52 -43 -67 -56 -46 -3 5 0 19 7 30 11 17 11 22 -2 30 -14 9 -33
-5 -42 -32 -2 -5 -11 -6 -20 -3 -14 6 -13 13 10 65 29 63 30 64 51 51z m-1034
-131 c3 -5 0 -10 -8 -10 -43 0 -44 -63 -1 -82 33 -15 52 2 29 26 -18 17 -12
36 10 36 19 0 37 -34 29 -55 -4 -8 -19 -22 -35 -30 -71 -37 -135 55 -73 104
30 23 40 26 49 11z m1275 -22 c22 -24 25 -34 11 -42 -4 -3 -13 6 -19 19 -15
32 -37 34 -27 3 4 -13 8 -36 9 -53 1 -25 -3 -31 -24 -33 -14 -2 -31 -8 -37
-14 -14 -12 -43 -4 -43 11 0 6 7 8 15 5 18 -7 20 17 4 33 -6 6 -8 17 -4 24 6
8 12 4 22 -15 7 -14 18 -26 23 -26 13 0 13 7 -2 46 -6 17 -8 39 -5 48 9 23 53
20 77 -6z m-1430 -180 l22 -52 18 24 c9 12 20 19 23 13 6 -10 -39 -73 -52 -73
-5 0 -18 23 -31 51 -21 50 -34 54 -42 14 -4 -18 -6 -18 -12 -3 -8 17 26 78 43
78 5 0 19 -23 31 -52z m1585 12 c9 -14 -65 -121 -77 -114 -5 3 -8 20 -6 37 3
28 0 32 -21 32 -44 1 -32 20 21 36 66 21 75 22 83 9z m-889 -152 c28 -12 26
-12 -41 -18 -108 -10 -123 -22 -88 -78 39 -61 218 -262 234 -262 4 0 9 10 13
23 3 12 73 89 155 171 148 148 150 150 171 131 11 -10 20 -23 20 -29 0 -18
-293 -303 -319 -311 -22 -7 -17 -13 76 -109 55 -55 128 -136 162 -178 34 -43
78 -90 97 -104 19 -15 34 -34 34 -44 0 -33 -69 -74 -108 -63 -11 2 -28 23 -38
46 -11 23 -53 80 -94 127 -41 47 -103 117 -137 157 l-61 72 -48 -57 c-26 -31
-103 -112 -170 -179 -129 -128 -153 -142 -187 -105 -11 11 -14 26 -10 42 9 33
304 327 324 322 4 -1 15 8 24 18 17 19 16 22 -45 87 -73 80 -190 183 -207 183
-7 0 -17 -6 -22 -12 -6 -7 -23 -29 -40 -48 l-29 -35 -27 25 c-30 28 -30 60 1
75 36 18 54 36 54 55 0 21 34 53 45 43 4 -5 5 -3 1 4 -8 14 37 48 84 62 41 12
135 7 176 -11z m-886 -19 c0 -5 -7 -9 -15 -9 -15 0 -20 12 -9 23 8 8 24 -1 24
-14z m108 -5 c26 -18 30 -74 6 -98 -24 -24 -80 -20 -98 6 -22 31 -20 58 6 85
25 27 54 29 86 7z m1788 -29 c19 -46 5 -75 -36 -75 -20 0 -31 6 -35 21 -5 16
-12 19 -30 15 -16 -4 -25 -1 -29 11 -4 9 -5 17 -4 17 14 8 105 44 111 45 4 1
15 -15 23 -34z m-1916 0 c0 -8 -7 -15 -15 -15 -16 0 -20 12 -8 23 11 12 23 8
23 -8z m24 -327 c7 -5 6 -8 -3 -8 -10 0 -7 -8 9 -25 21 -22 22 -25 5 -25 -17
0 -17 -1 -2 -18 24 -26 21 -35 -9 -28 -22 6 -25 4 -19 -14 5 -14 2 -20 -9 -20
-9 0 -16 8 -16 19 0 14 -6 17 -27 13 l-28 -5 24 27 c22 23 23 26 6 26 -17 0
-16 2 5 25 13 14 18 25 11 25 -8 0 -6 8 6 24 16 21 19 22 27 8 5 -10 14 -20
20 -24z m1945 -7 c-6 -2 0 -14 12 -27 20 -22 21 -24 4 -24 -17 0 -17 -1 -2
-18 24 -26 21 -35 -9 -28 -22 6 -25 4 -19 -14 5 -14 2 -20 -9 -20 -9 0 -16 8
-16 19 0 14 -6 17 -27 13 l-28 -5 24 27 c22 23 23 26 6 26 -17 0 -16 2 5 25
13 14 18 25 11 25 -8 0 -6 8 6 23 l17 24 17 -21 c10 -12 13 -23 8 -25z m-1740
-441 c14 -47 3 -76 -35 -90 -31 -12 -68 4 -83 37 -18 40 -13 50 34 63 25 7 48
17 51 21 11 18 21 8 33 -31z m1613 -7 c17 -10 -15 -33 -53 -39 -44 -7 -43 -19
1 -29 17 -4 30 -10 30 -14 0 -14 -13 -21 -24 -12 -6 4 -32 16 -58 26 -40 15
-46 20 -38 35 6 11 27 21 52 25 44 8 42 11 -15 29 -10 3 -16 10 -12 16 5 8 86
-17 117 -37z m-1512 -183 c14 -20 19 -37 15 -48 -7 -14 -9 -13 -14 8 -8 29
-36 34 -36 6 0 -11 -6 -21 -13 -24 -6 -2 -12 2 -12 8 0 9 -4 9 -16 -1 -15 -12
-14 -15 5 -30 15 -12 18 -20 10 -25 -7 -4 -23 7 -40 27 -15 19 -27 35 -26 36
14 13 94 72 99 72 4 1 16 -13 28 -29z m1370 0 c20 -20 26 -65 12 -86 -15 -23
-50 -34 -76 -24 -48 18 -61 76 -24 110 28 25 62 26 88 0z m-1258 -154 c-16
-18 -16 -19 13 -13 17 3 37 2 44 -2 8 -6 3 -10 -18 -14 -26 -6 -30 -11 -36
-52 -4 -25 -11 -45 -16 -45 -14 0 -23 24 -21 55 2 27 1 28 -11 13 -8 -10 -19
-18 -25 -18 -26 0 -21 23 12 62 20 23 36 45 36 50 0 4 9 3 20 -4 18 -12 18
-13 2 -32z m1067 -32 c1 -11 11 -31 22 -43 18 -19 19 -25 8 -32 -20 -12 -27
-11 -36 5 -4 8 -28 26 -52 39 -40 23 -42 26 -24 36 15 8 25 6 43 -6 23 -16 23
-16 17 14 -3 17 -3 34 1 37 8 8 20 -21 21 -50z m-832 -86 c31 -29 30 -71 -3
-97 -33 -26 -45 -26 -78 0 -35 28 -35 70 0 98 34 27 52 26 81 -1z m657 6 c4
-12 2 -15 -9 -10 -18 6 -45 -2 -45 -15 0 -5 12 -9 26 -9 36 0 64 -17 64 -40 0
-32 -78 -70 -87 -43 -2 6 7 13 22 15 30 4 37 22 9 26 -56 8 -64 13 -64 36 0
31 18 45 71 55 4 0 10 -6 13 -15z m-434 -70 c12 -12 12 -20 3 -45 -9 -23 -9
-37 -2 -51 9 -17 8 -19 -13 -16 -15 2 -24 11 -26 26 -4 30 -22 28 -22 -2 0
-20 -4 -23 -21 -19 -17 5 -20 11 -15 36 3 16 6 45 6 64 0 34 0 34 38 27 20 -3
44 -13 52 -20z m227 -36 c15 -29 29 -56 31 -60 7 -16 -37 -7 -46 9 -11 19 -42
11 -42 -12 0 -8 -6 -15 -14 -15 -12 0 -13 7 -5 32 5 17 10 46 11 65 3 52 32
43 65 -19z"/>
<path d="M1037 2204 c-7 -8 4 -44 14 -44 12 0 12 37 0 44 -4 3 -11 3 -14 0z"/>
<path d="M1440 2160 c0 -5 5 -10 10 -10 6 0 10 5 10 10 0 6 -4 10 -10 10 -5 0
-10 -4 -10 -10z"/>
<path d="M2005 1800 c-3 -5 -2 -10 4 -10 5 0 13 5 16 10 3 6 2 10 -4 10 -5 0
-13 -4 -16 -10z"/>
<path d="M1270 1299 c36 -36 92 -89 125 -119 l60 -54 -65 68 c-36 37 -92 91
-125 119 l-60 51 65 -65z"/>
<path d="M1089 1143 l-24 -28 28 24 c25 23 32 31 24 31 -2 0 -14 -12 -28 -27z"/>
<path d="M1015 1078 l-40 -43 43 40 c23 21 42 40 42 42 0 8 -9 0 -45 -39z"/>
<path d="M1465 1100 c10 -11 20 -20 23 -20 3 0 -3 9 -13 20 -10 11 -20 20 -23
20 -3 0 3 -9 13 -20z"/>
<path d="M1500 1056 c0 -2 8 -10 18 -17 15 -13 16 -12 3 4 -13 16 -21 21 -21
13z"/>
<path d="M324 1618 c-9 -14 31 -48 57 -48 25 0 35 26 19 45 -15 18 -66 20 -76
3z"/>
<path d="M2145 1607 c-13 -10 -15 -16 -6 -21 17 -11 41 0 41 19 0 19 -11 19
-35 2z"/>
<path d="M438 828 c-16 -5 -28 -16 -28 -24 0 -19 40 -18 68 2 43 30 18 44 -40
22z"/>
<path d="M1900 625 c0 -26 25 -45 59 -45 29 0 26 24 -5 49 -36 28 -54 27 -54
-4z"/>
<path d="M901 364 c-25 -31 -26 -47 -7 -63 11 -9 18 -6 35 15 25 31 26 47 7
63 -11 9 -18 6 -35 -15z"/>
<path d="M1130 300 c0 -11 4 -20 9 -20 11 0 22 26 14 34 -12 12 -23 5 -23 -14z"/>
<path d="M1361 274 c0 -11 3 -14 6 -6 3 7 2 16 -1 19 -3 4 -6 -2 -5 -13z"/>
</g>
</svg>
